<svg xmlns="http://www.w3.org/2000/svg" viewBox="0 0 64 64"><path fill="#E21A23" d="M0 0h64v64H0z"/><path fill="#fff" d="M34.978 58.785V43.26h3.555v15.526h-3.555zm-6.77 0V43.26h3.555v15.526h-3.556zm-5.052-11.733a2.001 2.001 0 01-1.986-2.015 1.97 1.97 0 012.015-1.926 1.97 1.97 0 011.926 2.015 1.957 1.957 0 01-1.955 1.926zm-1.897 11.733V48.83h3.734v9.955h-3.734zm-7.052 0v-6.489H9.052v6.49H5.215V43.258h3.822v5.926h5.156V43.26h3.822v15.526h-3.808zm41.526-19.481h-3.792l-1.882-7.111-1.718 7.11h-3.66l-3.303-11.54h3.54l1.808 7.437 1.911-7.437h3.14L53.69 35.2l1.748-7.437h3.393l-3.097 11.54zm-18.948.103v-.977a5.14 5.14 0 01-3.274 1.244c-2.34 0-3.763-1.57-3.763-3.793 0-3.644 5.17-3.955 6.385-3.955h.252c0-.37.09-1.082-.281-1.378-.208-.163-.563-.37-1.378-.37a7.397 7.397 0 00-2.4.444c-.222.074-.4.148-.533.208l-1.156-2.267c.193-.119.385-.222.593-.311a8.749 8.749 0 013.674-.77c1.777 0 3.11.444 4.03 1.362 1.007 1.008.933 2.356.933 3.793v6.77h-3.082zm-.355-5.422c-.89 0-2.534-.044-3.2.637a1.33 1.33 0 00-.4.978c0 1.126.844 1.407 1.451 1.407.77 0 1.526-.222 2.149-.651v-2.37zM28 30.475c-1.2-.03-2.34.577-2.993 1.584v7.304H21.26v-11.6h3.082v1.54c.074-.118 1.481-1.896 3.866-1.896 0 0 .163 0 .252.015.09.015.222.03.222.03L28 30.474zm-15.807 9.51c-4.741 0-8.119-3.066-8.119-8.03 0-5.17 3.556-8.28 8.37-8.28 3.556 0 5.126 1.466 5.467 1.806l-1.66 2.46a6.01 6.01 0 00-3.629-1.111c-2.726 0-4.696 1.837-4.696 4.903 0 3.467 2.207 5.067 4.652 5.067a7.01 7.01 0 002.074-.281V34.28h-2.8v-2.77h6.192v6.74c-.192.149-1.985 1.734-5.851 1.734zm20.651-18.948c-3.748 0-6.044-2.696-6.044-6.074 0-3.54 2.74-6.163 6.237-6.163 2.578 0 4 1.215 4.163 1.437l-1.467 2.252a4.161 4.161 0 00-2.163-.696c-1.807 0-3.022 1.333-3.022 3.096 0 1.837.904 3.14 2.815 3.14 1.378 0 2.533-.785 2.607-.844l1.423 2.326c-.074.06-1.66 1.526-4.549 1.526zm-11.703-.34l-.978-10.327-3.482 10.326h-3.407L9.6 10.341l-.756 10.355h-3.63L6.845 5.17h4.445l3.881 10.682L18.815 5.17h4.444l1.734 15.526H21.14z"/></svg>